<?xml version="1.0" encoding="UTF-8"?>
<svg width="80px" height="80px" viewBox="0 0 80 80" version="1.1" xmlns="http://www.w3.org/2000/svg" xmlns:xlink="http://www.w3.org/1999/xlink">
  <g id="zomato-logo" stroke="none" stroke-width="1" fill="none" fill-rule="evenodd">
    <path d="M40,0 C62.0914,0 80,17.9086 80,40 C80,62.0914 62.0914,80 40,80 C17.9086,80 0,62.0914 0,40 C0,17.9086 17.9086,0 40,0 Z" id="background" fill="#CB202D"/>
    <path d="M25.7716,24 C29.4922,24 32.5,27.0078 32.5,30.7284 C32.5,34.449 29.4922,37.4568 25.7716,37.4568 C22.051,37.4568 19.0432,34.449 19.0432,30.7284 C19.0432,27.0078 22.051,24 25.7716,24 Z M26.7413,28.6025 C26.7368,28.6025 26.7322,28.6025 26.7281,28.6025 C26.6845,28.6025 26.6432,28.6119 26.6053,28.6312 C26.5673,28.6504 26.5334,28.6795 26.5079,28.7157 C26.4829,28.7519 26.4667,28.7943 26.4615,28.8384 C26.4558,28.8826 26.4615,28.928 26.4774,28.9691 C26.9353,30.0246 26.9361,31.1901 26.4798,32.2461 C26.464,32.2877 26.4575,32.3325 26.4621,32.3772 C26.4668,32.4219 26.4824,32.4648 26.5079,32.5014 C26.5334,32.538 26.5675,32.5671 26.6059,32.5859 C26.6441,32.6055 26.6857,32.6143 26.7281,32.6143 L26.7281,32.6143 C26.7715,32.6143 26.8129,32.6058 26.851,32.5876 C26.8891,32.5694 26.9234,32.5423 26.95,32.5078 C26.9766,32.4733 26.9951,32.4329 27.0033,32.3891 C27.0116,32.3453 27.0091,32.3003 26.9965,32.2575 C26.4217,30.9908 26.4211,29.6005 26.9951,28.3337 C27.0077,28.2915 27.0102,28.247 27.002,28.2035 C26.9939,28.1601 26.9753,28.1201 26.9487,28.0859 C26.9221,28.0518 26.888,28.0249 26.8501,28.0066 C26.8121,27.9885 26.7709,27.9797 26.7276,27.9797 C26.7322,27.9797 26.7365,27.9797 26.741,27.9797 L26.741,27.9797 L26.7413,28.6025 Z M30.0238,32.6143 C30.067,32.6143 30.1086,32.6055 30.1468,32.5859 C30.1849,32.5671 30.219,32.538 30.2446,32.5014 C30.2701,32.4648 30.2855,32.4219 30.2902,32.3772 C30.295,32.3325 30.2883,32.2877 30.2725,32.2461 C29.8162,31.1901 29.817,30.0246 30.2748,28.9691 C30.2908,28.928 30.2964,28.8826 30.2908,28.8384 C30.2855,28.7943 30.2694,28.7519 30.2444,28.7157 C30.2189,28.6795 30.1848,28.6504 30.1471,28.6312 C30.1093,28.6119 30.0677,28.6025 30.0241,28.6025 L30.0241,28.6025 C29.9806,28.6025 29.9392,28.6113 29.9011,28.6297 C29.8632,28.648 29.8291,28.6751 29.8026,28.7092 C29.7759,28.7434 29.7576,28.7837 29.7493,28.8273 C29.7412,28.8707 29.7437,28.9155 29.7562,28.9579 C30.3296,30.2247 30.3301,31.6154 29.7557,32.882 C29.7431,32.9248 29.7406,32.9698 29.7489,33.0136 C29.7571,33.0576 29.7757,33.098 29.8023,33.1324 C29.8287,33.1669 29.863,33.1942 29.9011,33.2124 C29.9391,33.2306 29.9807,33.2389 30.0241,33.2389 C30.0238,33.2389 30.0238,32.6143 30.0238,32.6143 Z M27.9553,27.0665 C27.9553,27.0226 27.9459,26.9795 27.9277,26.9404 C27.9096,26.9012 27.8836,26.8674 27.8513,26.8414 C27.8194,26.8156 27.7818,26.7981 27.7418,26.7902 C27.7018,26.7823 27.6604,26.7841 27.6212,26.7956 C25.4218,27.3804 23.8391,29.4281 23.8391,31.8235 C23.8391,34.2188 25.4218,36.2668 27.6212,36.8516 C27.6604,36.8631 27.7018,36.8649 27.7418,36.857 C27.7818,36.8491 27.8194,36.8316 27.8513,36.8058 C27.8834,36.7799 27.9094,36.746 27.9277,36.7068 C27.9459,36.6677 27.9553,36.6246 27.9553,36.5808 L27.9553,36.5808 C27.9553,36.5368 27.9459,36.4936 27.9275,36.4544 C27.9093,36.415 27.8831,36.3811 27.8505,36.3552 C27.8182,36.3292 27.7804,36.3116 27.7401,36.3037 C27.6999,36.2958 27.6584,36.2977 27.619,36.3092 C25.7792,36.8075 24.4633,35.0004 24.4633,31.8235 C24.4633,28.6465 25.7792,26.8394 27.619,27.3376 C27.6584,27.3491 27.6999,27.351 27.7401,27.3431 C27.7804,27.3353 27.8182,27.3177 27.8505,27.2916 C27.8831,27.2657 27.9093,27.2318 27.9275,27.1924 C27.9459,27.1533 27.9553,27.1101 27.9553,27.0661 L27.9553,27.0661 L27.9553,27.0665 Z M29.3808,27.0665 L29.3808,27.0665 L29.3808,36.5808 C29.3808,36.6246 29.3905,36.6677 29.4086,36.7068 C29.4268,36.746 29.4528,36.7799 29.485,36.8058 C29.5171,36.8316 29.5545,36.8491 29.5945,36.857 C29.6345,36.8649 29.6759,36.8631 29.7151,36.8516 C31.9145,36.2668 33.4972,34.2188 33.4972,31.8235 C33.4972,29.4281 31.9145,27.3804 29.7151,26.7956 C29.6759,26.7841 29.6345,26.7823 29.5945,26.7902 C29.5545,26.7981 29.5171,26.8156 29.485,26.8414 C29.4529,26.8674 29.4268,26.9012 29.4086,26.9404 C29.3905,26.9795 29.3808,27.0226 29.3808,27.0665 Z M28.9727,27.6907 C28.9727,27.6469 28.9823,27.6039 29.0005,27.5648 C29.0187,27.5258 29.0447,27.4918 29.0768,27.4659 C29.1089,27.44 29.1463,27.4224 29.1863,27.4145 C29.2263,27.4066 29.2677,27.4085 29.3069,27.42 C30.6673,27.8248 31.6791,29.1975 31.7678,30.8733 L31.7678,30.8733 L31.7678,32.7736 C31.6791,34.4494 30.6673,35.822 29.3069,36.2268 C29.2677,36.2383 29.2263,36.2402 29.1863,36.2323 C29.1463,36.2244 29.1089,36.2069 29.0768,36.181 C29.0447,36.155 29.0187,36.1211 29.0005,36.082 C28.9823,36.043 28.9727,35.9998 28.9727,35.956 L28.9727,35.956 L28.9727,27.6907 Z M28.3672,27.6907 L28.3672,35.956 C28.3672,35.9998 28.3576,36.043 28.3394,36.082 C28.3212,36.1211 28.2951,36.155 28.263,36.181 C28.231,36.2069 28.1934,36.2244 28.1534,36.2323 C28.1134,36.2402 28.072,36.2383 28.0329,36.2268 C26.6724,35.822 25.6606,34.4494 25.5719,32.7736 L25.5719,32.7736 L25.5719,30.8733 C25.6606,29.1975 26.6724,27.8248 28.0329,27.42 C28.072,27.4085 28.1134,27.4066 28.1534,27.4145 C28.1934,27.4224 28.231,27.44 28.263,27.4659 C28.2951,27.4918 28.3212,27.5258 28.3394,27.5648 C28.3576,27.6039 28.3672,27.6469 28.3672,27.6907 L28.3672,27.6907 L28.3672,27.6907 Z M41.9568,37.4568 L41.9568,24 L59.5,24 L59.5,37.4568 L41.9568,37.4568 Z M44.2801,35.3369 L57.4244,35.3369 L57.4244,26.1199 L44.2801,26.1199 L44.2801,35.3369 Z M46.7629,56 L46.7629,42.5432 L50.6628,42.5432 C54.8971,42.5432 59.5,43.3303 59.5,48.0243 C59.5,52.7184 54.8971,56 50.6628,56 L46.7629,56 Z M50.1059,53.8803 C53.0485,53.8803 56.9767,52.2416 56.9767,48.0243 C56.9767,43.807 53.0485,44.6632 50.1059,44.6632 L49.2861,44.6632 L49.2861,53.8803 L50.1059,53.8803 Z M41.9568,56 L41.9568,42.5432 L44.48,42.5432 L44.48,56 L41.9568,56 Z M37.4804,56 L37.4804,42.5432 L40.0036,42.5432 L40.0036,56 L37.4804,56 Z M19.0432,56 L19.0432,42.5432 L36.5864,42.5432 L36.5864,44.6632 L21.5664,44.6632 L21.5664,48.0243 L35.6613,48.0243 L35.6613,50.1444 L21.5664,50.1444 L21.5664,53.8803 L36.5864,53.8803 L36.5864,56 L19.0432,56 Z" id="logo" fill="#FFFFFF" fill-rule="nonzero"/>
  </g>
</svg>